<svg width="111" height="27" viewBox="0 0 111 27" fill="none" xmlns="http://www.w3.org/2000/svg">
<g clip-path="url(#clip0_2_4083)">
<path d="M11.981 13.103L20.323 7.82299L10.723 1.74999L1.85701 7.36101L1.74901 19.937C1.74901 19.937 10.873 31.832 20.322 19.937" stroke="#5684FF" stroke-width="3.5" stroke-linecap="round" stroke-linejoin="round"/>
<path d="M43.484 17.981H30.266C30.3174 19.25 30.8706 20.4467 31.804 21.308C32.7302 22.1482 33.9449 22.5984 35.195 22.565C36.0399 22.622 36.8823 22.4214 37.6109 21.9897C38.3395 21.558 38.9201 20.9155 39.276 20.147H43.14C42.6295 21.7176 41.635 23.0863 40.299 24.057C38.8106 25.1073 37.0196 25.6421 35.199 25.58C33.6455 25.6051 32.1129 25.2198 30.756 24.463C29.4546 23.7285 28.3878 22.6405 27.679 21.325C26.9135 19.8813 26.53 18.2658 26.565 16.632C26.5288 14.9995 26.9015 13.3838 27.649 11.932C28.3367 10.6159 29.3954 9.53038 30.694 8.81C32.0731 8.05904 33.6239 7.67998 35.194 7.71002C36.7165 7.68243 38.2202 8.05042 39.558 8.77801C40.818 9.47282 41.8528 10.5138 42.54 11.778C43.2716 13.1431 43.6395 14.6736 43.608 16.222C43.6131 16.8107 43.5716 17.3989 43.484 17.981ZM39.873 15.091C39.8855 14.491 39.7653 13.8957 39.5211 13.3475C39.2768 12.7993 38.9145 12.3119 38.46 11.92C37.5057 11.1129 36.2862 10.6879 35.037 10.727C33.8687 10.7027 32.735 11.1238 31.866 11.905C30.9639 12.7341 30.4043 13.8705 30.297 15.091H39.873Z" fill="#fff"/>
<path d="M51.303 10.916V20.492C51.2783 20.744 51.3058 20.9985 51.3839 21.2394C51.462 21.4803 51.5891 21.7024 51.757 21.892C52.2059 22.2183 52.7586 22.3691 53.311 22.316H55.511V25.298H52.688C51.358 25.3877 50.0413 24.9859 48.988 24.169C48.5211 23.6855 48.1642 23.1068 47.9419 22.4724C47.7196 21.8381 47.6371 21.1632 47.7 20.494V10.918H45.659V7.997H47.7V3.69701H51.311V7.997H55.516V10.918L51.303 10.916Z" fill="#fff"/>
<path d="M74.54 17.981H61.319C61.3704 19.25 61.9236 20.4467 62.857 21.308C63.7832 22.1482 64.9979 22.5984 66.248 22.565C67.0928 22.622 67.9351 22.4215 68.6636 21.9897C69.392 21.558 69.9724 20.9155 70.328 20.147H74.192C73.6815 21.7178 72.6866 23.0866 71.35 24.057C69.8616 25.1073 68.0706 25.6422 66.25 25.58C64.6962 25.6051 63.1633 25.2198 61.806 24.463C60.505 23.7284 59.4385 22.6405 58.73 21.325C57.9641 19.8814 57.5806 18.2658 57.616 16.632C57.5801 14.9996 57.9523 13.3841 58.699 11.932C59.3875 10.6161 60.4464 9.53069 61.745 8.81C63.1241 8.05904 64.6749 7.67998 66.245 7.71002C67.7675 7.68243 69.2712 8.05042 70.609 8.77801C71.8688 9.47314 72.9035 10.5141 73.591 11.778C74.3226 13.1431 74.6905 14.6736 74.659 16.222C74.6657 16.8106 74.626 17.3987 74.54 17.981ZM70.929 15.091C70.9415 14.491 70.8213 13.8957 70.5771 13.3475C70.3328 12.7993 69.9705 12.3119 69.516 11.92C68.5613 11.1128 67.3416 10.6878 66.092 10.727C64.9238 10.7027 63.79 11.1238 62.921 11.905C62.0192 12.7343 61.4596 13.8706 61.352 15.091H70.929Z" fill="#fff"/>
<path d="M80.799 24.841C79.7875 24.4011 78.9059 23.7086 78.239 22.83C77.6205 22.0089 77.2712 21.0165 77.239 19.989H80.939C80.9712 20.3531 81.0819 20.7058 81.2635 21.0229C81.4451 21.3401 81.6933 21.6141 81.991 21.826C82.6845 22.3365 83.5305 22.597 84.391 22.565C85.211 22.6127 86.0263 22.4105 86.729 21.985C86.9836 21.8278 87.1938 21.6081 87.3396 21.3468C87.4854 21.0855 87.5619 20.7912 87.562 20.492C87.5693 20.1864 87.4849 19.8856 87.3197 19.6284C87.1545 19.3712 86.916 19.1694 86.635 19.049C85.6891 18.6165 84.7066 18.2692 83.699 18.011C82.6227 17.7286 81.5639 17.3833 80.528 16.977C79.7096 16.6398 78.9835 16.1122 78.41 15.438C77.786 14.6687 77.4674 13.6964 77.515 12.707C77.51 11.7982 77.7959 10.9116 78.331 10.177C78.9292 9.37307 79.738 8.75015 80.668 8.37702C81.7773 7.92028 82.9686 7.69599 84.168 7.71802C85.8795 7.63528 87.5648 8.16335 88.923 9.20801C89.5205 9.70561 90.0026 10.3272 90.336 11.0296C90.6695 11.732 90.8462 12.4985 90.854 13.276H87.275C87.2574 12.9181 87.1642 12.568 87.0017 12.2487C86.8392 11.9293 86.611 11.6479 86.332 11.423C85.6721 10.932 84.8614 10.6872 84.04 10.731C83.281 10.6835 82.5257 10.8698 81.876 11.265C81.6408 11.4173 81.4482 11.6268 81.3163 11.874C81.1844 12.1212 81.1175 12.3979 81.122 12.678C81.1174 12.8962 81.1596 13.1128 81.2459 13.3133C81.3321 13.5137 81.4604 13.6933 81.622 13.84C81.9765 14.1667 82.3936 14.4181 82.848 14.579C83.328 14.755 84.0393 14.9797 84.982 15.253C86.035 15.52 87.0679 15.8608 88.073 16.273C88.8763 16.6154 89.591 17.1362 90.163 17.796C90.7783 18.5472 91.1015 19.4954 91.073 20.466C91.0853 21.4093 90.799 22.3323 90.255 23.103C89.6686 23.9113 88.8702 24.5419 87.948 24.925C86.84 25.3864 85.6478 25.6108 84.448 25.584C83.1923 25.6019 81.9477 25.3485 80.799 24.841Z" fill="#fff"/>
<path d="M99.12 10.916V20.492C99.0952 20.744 99.1228 20.9985 99.2009 21.2394C99.279 21.4803 99.4061 21.7024 99.574 21.892C100.023 22.2185 100.576 22.3693 101.128 22.316H103.328V25.298H100.505C99.175 25.3877 97.8583 24.9859 96.805 24.169C96.3381 23.6855 95.9812 23.1068 95.7589 22.4724C95.5366 21.8381 95.4541 21.1632 95.517 20.494V10.918H93.476V7.997H95.517V3.69701H99.128V7.997H103.328V10.918L99.12 10.916Z" fill="#fff"/>
<path d="M106.811 5.04399C106.487 4.72326 106.266 4.31334 106.177 3.86653C106.087 3.41972 106.132 2.95626 106.307 2.53538C106.482 2.1145 106.778 1.75527 107.158 1.50352C107.538 1.25178 107.984 1.11895 108.44 1.12199C108.738 1.11682 109.033 1.17272 109.308 1.28624C109.584 1.39976 109.833 1.56848 110.04 1.782C110.463 2.22 110.7 2.80535 110.7 3.4145C110.7 4.02366 110.463 4.60898 110.04 5.04698C109.833 5.26036 109.583 5.42893 109.308 5.54228C109.033 5.65563 108.738 5.71137 108.44 5.70601C108.138 5.71283 107.837 5.65757 107.557 5.54372C107.277 5.42986 107.023 5.25979 106.811 5.04399ZM110.201 7.99498V25.295H106.624V7.99498H110.201Z" fill="#fff"/>
</g>
<defs>
<clipPath id="clip0_2_4083">
<rect width="110.705" height="26.974" fill="white"/>
</clipPath>
</defs>
</svg>
